<svg xmlns="http://www.w3.org/2000/svg" xmlns:xlink="http://www.w3.org/1999/xlink" width="500"
    zoomAndPan="magnify" viewBox="0 0 375 149.999998" height="200"
    preserveAspectRatio="xMidYMid meet" version="1.0">
    <defs>
        <g />
    </defs>
    <g fill="#ffde59" fill-opacity="1">
        <g transform="translate(37.195314, 116.775745)">
            <g>
                <path
                    d="M 58.421875 -105.203125 L 58.421875 -91.4375 C 55.878906 -91.4375 53.695312 -91.21875 51.875 -90.78125 C 50.0625 -90.34375 48.707031 -89.546875 47.8125 -88.390625 C 46.914062 -87.242188 46.570312 -85.609375 46.78125 -83.484375 L 48.71875 -65 C 49.21875 -60.320312 48.707031 -56.539062 47.1875 -53.65625 C 45.664062 -50.78125 43.347656 -48.582031 40.234375 -47.0625 C 37.128906 -45.539062 33.46875 -44.46875 29.25 -43.84375 C 33.71875 -43.164062 37.492188 -42.078125 40.578125 -40.578125 C 43.671875 -39.078125 45.925781 -36.90625 47.34375 -34.0625 C 48.757812 -31.226562 49.21875 -27.429688 48.71875 -22.671875 L 46.78125 -4.203125 C 46.570312 -2.109375 46.914062 -0.476562 47.8125 0.6875 C 48.707031 1.851562 50.070312 2.65625 51.90625 3.09375 C 53.75 3.53125 55.921875 3.75 58.421875 3.75 L 58.421875 17.53125 C 52.660156 17.53125 47.773438 17.113281 43.765625 16.28125 C 39.765625 15.445312 36.5625 14.117188 34.15625 12.296875 C 31.757812 10.484375 30.113281 8.101562 29.21875 5.15625 C 28.320312 2.21875 28.082031 -1.359375 28.5 -5.578125 L 30.375 -23.484375 C 30.707031 -26.660156 30.171875 -29.144531 28.765625 -30.9375 C 27.367188 -32.726562 25.3125 -33.988281 22.59375 -34.71875 C 19.882812 -35.457031 16.757812 -35.828125 13.21875 -35.828125 L 13.21875 -51.859375 C 16.71875 -51.859375 19.820312 -52.222656 22.53125 -52.953125 C 25.25 -53.679688 27.316406 -54.941406 28.734375 -56.734375 C 30.160156 -58.535156 30.707031 -61.019531 30.375 -64.1875 L 28.5 -81.96875 C 28.039062 -86.269531 28.257812 -89.898438 29.15625 -92.859375 C 30.050781 -95.828125 31.695312 -98.21875 34.09375 -100.03125 C 36.5 -101.851562 39.710938 -103.171875 43.734375 -103.984375 C 47.765625 -104.796875 52.660156 -105.203125 58.421875 -105.203125 Z M 58.421875 -105.203125 " />
            </g>
        </g>
    </g>
    <g fill="#38b6ff" fill-opacity="1">
        <g transform="translate(112.347653, 116.775745)">
            <g>
                <path
                    d="M 50.09375 -18.71875 L 24.671875 -18.71875 L 20.109375 0 L -1.375 0 L 25.171875 -86.796875 L 50.09375 -86.796875 L 76.65625 0 L 54.671875 0 Z M 27.9375 -33.625 L 46.71875 -33.625 L 37.328125 -72.015625 Z M 27.9375 -33.625 " />
            </g>
        </g>
    </g>
    <g fill="#cb6ce6" fill-opacity="1">
        <g transform="translate(187.499996, 116.775745)">
            <g>
                <path
                    d="M 44.84375 -88.984375 C 51.0625 -88.984375 56.351562 -88.160156 60.71875 -86.515625 C 65.082031 -84.867188 69.078125 -82.539062 72.703125 -79.53125 L 62.625 -67.390625 C 60.25 -69.347656 57.617188 -70.898438 54.734375 -72.046875 C 51.847656 -73.191406 48.71875 -73.765625 45.34375 -73.765625 C 41.707031 -73.765625 38.382812 -72.734375 35.375 -70.671875 C 32.375 -68.609375 29.972656 -65.351562 28.171875 -60.90625 C 26.378906 -56.457031 25.484375 -50.6875 25.484375 -43.59375 C 25.484375 -36.613281 26.347656 -30.921875 28.078125 -26.515625 C 29.816406 -22.117188 32.207031 -18.882812 35.25 -16.8125 C 38.300781 -14.75 41.789062 -13.71875 45.71875 -13.71875 C 50.0625 -13.71875 53.671875 -14.53125 56.546875 -16.15625 C 59.429688 -17.78125 62.082031 -19.554688 64.5 -21.484375 L 73.828125 -9.578125 C 70.578125 -6.367188 66.570312 -3.613281 61.8125 -1.3125 C 57.050781 0.976562 51.3125 2.125 44.59375 2.125 C 36.738281 2.125 29.773438 0.382812 23.703125 -3.09375 C 17.628906 -6.582031 12.867188 -11.71875 9.421875 -18.5 C 5.984375 -25.289062 4.265625 -33.65625 4.265625 -43.59375 C 4.265625 -53.269531 6.046875 -61.488281 9.609375 -68.25 C 13.179688 -75.019531 18.035156 -80.164062 24.171875 -83.6875 C 30.304688 -87.21875 37.195312 -88.984375 44.84375 -88.984375 Z M 44.84375 -88.984375 " />
            </g>
        </g>
    </g>
    <g fill="#ffde59" fill-opacity="1">
        <g transform="translate(262.652332, 116.775745)">
            <g>
                <path
                    d="M 16.71875 -105.203125 C 22.476562 -105.203125 27.363281 -104.785156 31.375 -103.953125 C 35.382812 -103.117188 38.585938 -101.789062 40.984375 -99.96875 C 43.390625 -98.15625 45.050781 -95.773438 45.96875 -92.828125 C 46.882812 -89.890625 47.113281 -86.3125 46.65625 -82.09375 L 44.78125 -64.1875 C 44.445312 -61.019531 44.988281 -58.535156 46.40625 -56.734375 C 47.820312 -54.941406 49.875 -53.679688 52.5625 -52.953125 C 55.257812 -52.222656 58.382812 -51.859375 61.9375 -51.859375 L 61.9375 -35.828125 C 58.425781 -35.828125 55.3125 -35.457031 52.59375 -34.71875 C 49.882812 -33.988281 47.820312 -32.726562 46.40625 -30.9375 C 44.988281 -29.144531 44.445312 -26.660156 44.78125 -23.484375 L 46.65625 -5.703125 C 47.113281 -1.398438 46.894531 2.226562 46 5.1875 C 45.101562 8.15625 43.453125 10.546875 41.046875 12.359375 C 38.648438 14.179688 35.4375 15.5 31.40625 16.3125 C 27.375 17.125 22.476562 17.53125 16.71875 17.53125 L 16.71875 3.75 C 19.269531 3.75 21.453125 3.53125 23.265625 3.09375 C 25.078125 2.65625 26.429688 1.851562 27.328125 0.6875 C 28.234375 -0.476562 28.582031 -2.109375 28.375 -4.203125 L 26.421875 -22.671875 C 25.921875 -27.390625 26.429688 -31.175781 27.953125 -34.03125 C 29.484375 -36.894531 31.8125 -39.085938 34.9375 -40.609375 C 38.070312 -42.128906 41.75 -43.207031 45.96875 -43.84375 C 41.5 -44.507812 37.707031 -45.59375 34.59375 -47.09375 C 31.488281 -48.59375 29.222656 -50.769531 27.796875 -53.625 C 26.378906 -56.488281 25.921875 -60.28125 26.421875 -65 L 28.375 -83.484375 C 28.582031 -85.609375 28.234375 -87.242188 27.328125 -88.390625 C 26.429688 -89.546875 25.078125 -90.34375 23.265625 -90.78125 C 21.453125 -91.21875 19.269531 -91.4375 16.71875 -91.4375 Z M 16.71875 -105.203125 " />
            </g>
        </g>
    </g>
</svg>